<svg width="32" height="32" viewBox="0 0 32 32" fill="none" xmlns="http://www.w3.org/2000/svg">
  <rect width="32" height="32" rx="16" fill="#000000"/>
  <path d="M8 24V8h3c2 0 4 1 4 3s-1 2-2 2c2 0 3 1 3 3s-2 3-4 3H8z" fill="#D4AF37"/>
  <path d="M9 9v6h2c1 0 2 0 2-1s-1-1-2-1h-1v-1h1c1 0 2 0 2-1s-1-1-2-1H9z" fill="#000000"/>
  <path d="M9 16v6h3c1 0 2-1 2-2s-1-2-2-2H9z" fill="#000000"/>
  <circle cx="22" cy="12" r="6" stroke="#D4AF37" stroke-width="2" fill="none"/>
  <path d="M19 10l3 2-3 2" stroke="#D4AF37" stroke-width="1.5" fill="none"/>
</svg>
